<?xml version="1.0" encoding="UTF-8"?>
<svg version="1.1" xmlns="http://www.w3.org/2000/svg" width="200" height="200">
<path d="M0 0 C1.17111328 -0.01224609 2.34222656 -0.02449219 3.54882812 -0.03710938 C4.66580078 -0.03904297 5.78277344 -0.04097656 6.93359375 -0.04296875 C7.96411865 -0.04707764 8.99464355 -0.05118652 10.05639648 -0.05541992 C12.5625 0.1875 12.5625 0.1875 14.5625 2.1875 C14.33489874 5.28661857 13.97362062 8.24770393 13.5 11.3125 C13.36295654 12.26012207 13.22591309 13.20774414 13.0847168 14.18408203 C12.18895409 20.29230292 11.21546347 26.38814363 10.2421875 32.484375 C10.12954056 33.19338959 10.01689362 33.90240417 9.90083313 34.63290405 C9.33971985 38.16331373 8.77183622 41.69231219 8.18920898 45.21923828 C7.15340402 51.589901 6.25659284 57.72211082 6.5625 64.1875 C11.37244529 62.65086341 14.67622298 59.91724923 18.5 56.75 C19.84195438 55.65694589 21.18441357 54.56451128 22.52734375 53.47265625 C23.54030518 52.64531982 23.54030518 52.64531982 24.57373047 51.80126953 C28.10071825 48.93932634 31.68339546 46.14878676 35.26879883 43.3605957 C38.43487782 40.88971751 41.55277048 38.37449882 44.6328125 35.796875 C45.30957031 35.23677734 45.98632812 34.67667969 46.68359375 34.09960938 C47.99439821 33.01238267 49.29690981 31.91505935 50.58984375 30.80664062 C52.3828125 29.328125 52.3828125 29.328125 55.5625 27.1875 C57.65209961 27.41479492 57.65209961 27.41479492 59.5625 28.1875 C61.30859375 30.41015625 61.30859375 30.41015625 63 33.25 C63.59683594 34.24257813 64.19367188 35.23515625 64.80859375 36.2578125 C65.67677734 37.70800781 65.67677734 37.70800781 66.5625 39.1875 C67.97146548 41.27511144 69.38052318 43.36170229 70.8125 45.43359375 C71.5625 47.1875 71.5625 47.1875 71.51611328 49.11474609 C69.98155049 52.45023971 67.40904585 52.83446597 64.0546875 54.10546875 C63.3851152 54.36433868 62.71554291 54.62320862 62.02568054 54.8899231 C59.83496118 55.73307844 57.63662833 56.55405675 55.4375 57.375 C53.93424475 57.94862317 52.4315603 58.52374439 50.92944336 59.1003418 C47.910837 60.25723541 44.88945252 61.40637295 41.86572266 62.54980469 C34.95994355 65.16792236 28.10504911 67.91533208 21.24365234 70.6472168 C20.38078613 70.98664307 19.51791992 71.32606934 18.62890625 71.67578125 C17.88584229 71.97009033 17.14277832 72.26439941 16.37719727 72.56762695 C14.5625 73.1875 14.5625 73.1875 12.5625 73.1875 C12.48054583 75.11464898 12.48054583 75.11464898 13.5625 77.1875 C16.08030675 78.45901455 18.40674109 79.43059387 21.05078125 80.359375 C21.81756699 80.64308456 22.58435272 80.92679413 23.37437439 81.21910095 C25.01815102 81.82525893 26.6645954 82.42422153 28.31335449 83.01669312 C30.87232765 83.9365394 33.42369406 84.87500336 35.97363281 85.81958008 C39.3150731 87.05639858 42.65857685 88.28728022 46.00439453 89.51220703 C51.62985436 91.5753366 57.23315229 93.69012551 62.8125 95.875 C63.61341064 96.17696289 64.41432129 96.47892578 65.23950195 96.79003906 C67.05028375 97.50276081 68.81426591 98.33275993 70.5625 99.1875 C71.5625 102.1875 71.5625 102.1875 70.0859375 105.296875 C69.38121099 106.5170835 68.66438123 107.73035796 67.9375 108.9375 C67.57011719 109.56350098 67.20273438 110.18950195 66.82421875 110.83447266 C64.28148035 115.12032514 61.58442833 119.22121907 58.5625 123.1875 C54.49462992 121.79509286 51.7103552 119.89471477 48.4375 117.125 C47.46941406 116.31417969 46.50132812 115.50335938 45.50390625 114.66796875 C44.53324219 113.84941406 43.56257813 113.03085938 42.5625 112.1875 C40.83611199 110.76744851 39.10695599 109.35075519 37.375 107.9375 C36.47910156 107.2053125 35.58320313 106.473125 34.66015625 105.71875 C34.17562988 105.32300781 33.69110352 104.92726563 33.19189453 104.51953125 C32.0046993 103.54899826 30.8182807 102.57751505 29.63232422 101.60546875 C27.52742619 99.88071124 25.42011626 98.15893436 23.3125 96.4375 C22.32020386 95.62297363 22.32020386 95.62297363 21.30786133 94.79199219 C14.15117805 88.16790999 14.15117805 88.16790999 5.5625 85.1875 C5.6774733 85.92808151 5.79244659 86.66866302 5.91090393 87.4316864 C6.99409876 94.41899786 8.06900551 101.40752258 9.13467503 108.39752483 C9.68280729 111.99091569 10.23410596 115.58376026 10.79272461 119.17553711 C11.331935 122.64329881 11.86271809 126.1122561 12.38773918 129.58219337 C12.68721331 131.54671346 12.99534827 133.50990695 13.30360413 135.47306824 C13.48386642 136.6739357 13.66412872 137.87480316 13.84985352 139.11206055 C14.01195816 140.16685104 14.17406281 141.22164154 14.34107971 142.30839539 C14.56191652 145.17991309 14.2756132 147.4108406 13.5625 150.1875 C9.25001391 150.21636537 4.93755238 150.23425255 0.625 150.25 C-0.60669922 150.25837891 -1.83839844 150.26675781 -3.10742188 150.27539062 C-4.27724609 150.27861328 -5.44707031 150.28183594 -6.65234375 150.28515625 C-7.73636475 150.29039307 -8.82038574 150.29562988 -9.93725586 150.30102539 C-12.4375 150.1875 -12.4375 150.1875 -13.4375 149.1875 C-13.23492374 140.95428085 -11.8720834 132.76085515 -10.58984375 124.640625 C-10.41369034 123.50341003 -10.23753693 122.36619507 -10.05604553 121.19451904 C-9.49961993 117.60822276 -8.93741437 114.02286145 -8.375 110.4375 C-7.99375597 107.98703898 -7.61289307 105.53651863 -7.23242188 103.0859375 C-6.30518197 97.11909936 -5.37321147 91.15301518 -4.4375 85.1875 C-9.33517438 85.95184108 -12.01144767 87.99926063 -15.625 91.25 C-16.78031801 92.25888076 -17.93657664 93.26668533 -19.09375 94.2734375 C-19.6609375 94.77069336 -20.228125 95.26794922 -20.8125 95.78027344 C-24.58165539 99.04430764 -28.52816999 102.09447381 -32.4375 105.1875 C-34.10493253 106.51987544 -35.7715919 107.85321902 -37.4375 109.1875 C-38.25605469 109.83976562 -39.07460938 110.49203125 -39.91796875 111.1640625 C-41.65987723 112.56299055 -43.39102938 113.97537975 -45.11328125 115.3984375 C-46.41845703 116.46964844 -46.41845703 116.46964844 -47.75 117.5625 C-48.52988281 118.20960938 -49.30976562 118.85671875 -50.11328125 119.5234375 C-52.48213137 121.21945456 -54.69721418 122.22718745 -57.4375 123.1875 C-62.64974674 116.21727654 -66.74309484 109.06348463 -70.4375 101.1875 C-67.96483823 98.28584756 -65.50254921 97.23409128 -61.95629883 95.91918945 C-60.83536331 95.49898026 -59.7144278 95.07877106 -58.55952454 94.64582825 C-56.74535286 93.98002998 -56.74535286 93.98002998 -54.89453125 93.30078125 C-53.64301743 92.83496233 -52.39177469 92.36841451 -51.14079285 91.90116882 C-47.85387761 90.67572091 -44.56337962 89.46019273 -41.27203369 88.2467041 C-37.91155475 87.00573397 -34.55456374 85.75540336 -31.19726562 84.50585938 C-24.61405771 82.05724139 -18.02701688 79.61908688 -11.4375 77.1875 C-11.67657138 75.23043336 -11.67657138 75.23043336 -12.4375 73.1875 C-15.12942707 71.83520207 -17.64949882 70.77470179 -20.46875 69.76171875 C-21.29266235 69.45103958 -22.11657471 69.14036041 -22.9654541 68.82026672 C-25.61749454 67.82356681 -28.2769315 66.84867844 -30.9375 65.875 C-34.38728196 64.59222326 -37.8342704 63.30200463 -41.28125 62.01171875 C-42.55234619 61.53676468 -42.55234619 61.53676468 -43.84912109 61.05221558 C-49.61997757 58.88917904 -55.37344543 56.68819089 -61.09375 54.39453125 C-61.80865601 54.11550461 -62.52356201 53.83647797 -63.26013184 53.54899597 C-66.7733816 52.11901599 -68.27815661 51.42651508 -70.4375 48.1875 C-69.02648467 45.6217435 -67.60895884 43.05996271 -66.1875 40.5 C-65.79175781 39.77876953 -65.39601563 39.05753906 -64.98828125 38.31445312 C-62.75507072 34.30565718 -60.44446644 30.68413299 -57.4375 27.1875 C-54.31598767 27.78178956 -52.46665283 28.70837369 -50.0390625 30.7421875 C-49.08386719 31.5321814 -49.08386719 31.5321814 -48.109375 32.33813477 C-47.43390625 32.90717529 -46.7584375 33.47621582 -46.0625 34.0625 C-44.61792047 35.25739709 -43.17259507 36.45139299 -41.7265625 37.64453125 C-41.0037207 38.24346191 -40.28087891 38.84239258 -39.53613281 39.45947266 C-34.25422628 43.80862743 -28.85032307 48.00325 -23.4375 52.1875 C-22.73963379 52.72922852 -22.04176758 53.27095703 -21.32275391 53.82910156 C-19.13830997 55.51969221 -16.94553497 57.19884689 -14.75 58.875 C-14.06615234 59.40488525 -13.38230469 59.93477051 -12.67773438 60.48071289 C-8.97772807 63.43831319 -8.97772807 63.43831319 -4.4375 64.1875 C-4.55025269 63.47197464 -4.66300537 62.75644928 -4.7791748 62.01924133 C-5.84254994 55.26668195 -6.90225276 48.51355535 -7.95786285 41.75977802 C-8.50065353 38.28785502 -9.04484762 34.81616429 -9.59228516 31.3449707 C-10.22199079 27.35172724 -10.84552608 23.35754148 -11.46875 19.36328125 C-11.66561401 18.12040848 -11.86247803 16.87753571 -12.06530762 15.59700012 C-12.24549438 14.43617416 -12.42568115 13.27534821 -12.61132812 12.0793457 C-12.77121216 11.06008499 -12.93109619 10.04082428 -13.0958252 8.99067688 C-13.41845425 6.3437556 -13.57598684 3.84990948 -13.4375 1.1875 C-10.84794843 -1.40205157 -3.48572397 0.00191208 0 0 Z " fill="#000000" transform="translate(99.4375,24.8125)"/>
</svg>
